<svg xmlns="http://www.w3.org/2000/svg" width="178.626" height="34.265" viewBox="0 0 178.626 34.265"><g id="Group_77565" data-name="Group 77565" transform="translate(-18.636 -29.464)"><path id="Path_59190" data-name="Path 59190" d="M52.1,37.99,38.247,30a3.991,3.991,0,0,0-1.919-.533A3.605,3.605,0,0,0,34.41,30L20.555,37.99a3.829,3.829,0,0,0-1.919,3.3v16.04a3.9,3.9,0,0,0,1.919,3.3l.959.533,4.423,2.558V56.322l10.391-5.969L46.72,56.322v7.354l4.423-2.558.959-.586a3.828,3.828,0,0,0,1.919-3.3V41.241A3.857,3.857,0,0,0,52.1,37.99ZM46.613,47.9,38.193,43a3.99,3.99,0,0,0-1.918-.533A3.606,3.606,0,0,0,34.357,43l-8.473,4.9V43.266l8.686-5.009a3.425,3.425,0,0,1,3.357,0l8.686,5.009Z" transform="translate(0 0)" fill="#50b95d"/><g id="Group_75361" data-name="Group 75361" transform="translate(62.946 37.71)"><path id="Path_59191" data-name="Path 59191" d="M254.043,68.983a6.293,6.293,0,0,0-1.386-1.972,5.8,5.8,0,0,0-2.078-1.226,7.887,7.887,0,0,0-5.116,0,5.8,5.8,0,0,0-2.078,1.226A5.286,5.286,0,0,0,242,68.983a6.437,6.437,0,0,0-.533,2.558A5.8,5.8,0,0,0,242,74.1a6.311,6.311,0,0,0,1.386,1.972,5.8,5.8,0,0,0,2.078,1.226,7.887,7.887,0,0,0,5.116,0,5.8,5.8,0,0,0,2.078-1.226,5.28,5.28,0,0,0,1.386-1.972,6.438,6.438,0,0,0,.533-2.558A5.952,5.952,0,0,0,254.043,68.983Zm-6.022,5.542a2.984,2.984,0,1,1,2.984-2.984A2.979,2.979,0,0,1,248.021,74.525Z" transform="translate(-201.419 -60.016)" fill="#50b95d"/><path id="Path_59192" data-name="Path 59192" d="M221.332,63.889a2.119,2.119,0,0,1-.37-1.078,2.32,2.32,0,0,1,.37-1.078L224.641,57h-3.636l-3.618,4.881a1.992,1.992,0,0,0-.1.21V51.282h-3.624V68.655h3.624V63.567a1.8,1.8,0,0,0,.1.2l3.618,4.881h3.884Z" transform="translate(-184.143 -51.268)" fill="#50b95d"/><path id="Path_59193" data-name="Path 59193" d="M366.537,51.259h0V65.168h7.034v3.464H362.807V51.259h0S366.57,51.227,366.537,51.259Z" transform="translate(-276.824 -51.245)" fill="#50b95d"/><path id="Path_59194" data-name="Path 59194" d="M428.4,51.283V68.655h3.358V67.11h0a3.608,3.608,0,0,0,.64.639,4.423,4.423,0,0,0,.8.586,5.8,5.8,0,0,0,1.013.426,4.163,4.163,0,0,0,1.172.16,6.556,6.556,0,0,0,2.345-.426,4.878,4.878,0,0,0,1.812-1.279,5.036,5.036,0,0,0,1.172-1.918,7.161,7.161,0,0,0,.426-2.451,6.8,6.8,0,0,0-.32-2.291,5.851,5.851,0,0,0-1.066-1.972,4.775,4.775,0,0,0-1.7-1.385,4.349,4.349,0,0,0-2.238-.533,5.8,5.8,0,0,0-2.132.373,3.635,3.635,0,0,0-1.652,1.172h0V51.283Zm6.235,14.495a2.984,2.984,0,1,1,2.984-2.984A2.979,2.979,0,0,1,434.638,65.778Z" transform="translate(-317.587 -51.269)" fill="#50b95d"/><path id="Path_59195" data-name="Path 59195" d="M153.693,69.145l-7.461-17.159-3.144.053-7.407,17.106h4.156l1.09-2.728,2.432-1.408a2.235,2.235,0,0,1,1.189-.33,2.472,2.472,0,0,1,1.188.33l2.67,1.554,1.024,2.581Zm-8.122-7.475a2.12,2.12,0,0,0-2.08,0l-1.043.6h0l2.078-4.956,2.076,4.951Z" transform="translate(-135.681 -51.705)" fill="#50b95d"/><path id="Path_59196" data-name="Path 59196" d="M283.2,67.864a4.429,4.429,0,0,1,2.984,1.332L288,67.384v-.053l-.32-.32a6.874,6.874,0,0,0-4.636-1.652c-2.718,0-4.583,1.492-4.583,3.677a2.656,2.656,0,0,0,1.226,2.4,23.3,23.3,0,0,0,3.464,1.492c1.172.426,1.332,1.066,1.066,1.492a1.567,1.567,0,0,1-1.492.693,4.538,4.538,0,0,1-2.984-1.332l-1.812,1.812.32.32a6.877,6.877,0,0,0,4.636,1.652c2.718,0,4.583-1.492,4.583-3.677a2.978,2.978,0,0,0-1.226-2.4,9.341,9.341,0,0,0-2.291-1.172,9.128,9.128,0,0,1-1.812-.693.933.933,0,0,1-.426-1.172A1.783,1.783,0,0,1,283.2,67.864Z" transform="translate(-224.076 -60.016)" fill="#50b95d"/><path id="Path_59197" data-name="Path 59197" d="M469.152,67.864a4.429,4.429,0,0,1,2.984,1.332l1.812-1.812v-.053l-.32-.32a6.87,6.87,0,0,0-4.636-1.652c-2.718,0-4.583,1.492-4.583,3.677a2.655,2.655,0,0,0,1.226,2.4,23.3,23.3,0,0,0,3.464,1.492c1.172.426,1.332,1.066,1.066,1.492a1.567,1.567,0,0,1-1.492.693,4.538,4.538,0,0,1-2.984-1.332l-1.812,1.812.32.32a6.876,6.876,0,0,0,4.636,1.652c2.718,0,4.583-1.492,4.583-3.677a2.977,2.977,0,0,0-1.226-2.4,9.34,9.34,0,0,0-2.292-1.172,9.121,9.121,0,0,1-1.812-.693.932.932,0,0,1-.426-1.172A1.782,1.782,0,0,1,469.152,67.864Z" transform="translate(-339.631 -60.016)" fill="#50b95d"/><path id="Path_59198" data-name="Path 59198" d="M318.175,71.541a7.811,7.811,0,0,0-.373-2.558,6.519,6.519,0,0,0-1.119-1.972,4.561,4.561,0,0,0-1.758-1.226,6.265,6.265,0,0,0-2.291-.426,8.046,8.046,0,0,0-2.558.426A5.81,5.81,0,0,0,308,67.011a5.279,5.279,0,0,0-1.385,1.972,6.437,6.437,0,0,0-.533,2.558,5.789,5.789,0,0,0,.533,2.558A6.3,6.3,0,0,0,308,76.07a5.135,5.135,0,0,0,2.078,1.226,8.056,8.056,0,0,0,2.558.426,7.179,7.179,0,0,0,2.771-.586,5.939,5.939,0,0,0,1.865-1.332l-2.238-2.238a3.846,3.846,0,0,1-1.066,1.013,3,3,0,0,1-3.3-.267,3.039,3.039,0,0,1-.959-1.652h8.42V71.541Zm-8.42-1.332a2.642,2.642,0,0,1,5.222,0Z" transform="translate(-241.571 -60.016)" fill="#50b95d"/><path id="Path_59199" data-name="Path 59199" d="M190.966,65.82h0v1.865h0a4.428,4.428,0,0,1,1.439-1.652,3.477,3.477,0,0,1,2.025-.533h.639a1.923,1.923,0,0,1,.586.106v3.3h0A2.905,2.905,0,0,0,194,68.378a2.979,2.979,0,0,0-2.984,2.984v1.226h-.053v4.956h-3.624V65.82S191.012,65.866,190.966,65.82Z" transform="translate(-167.785 -60.103)" fill="#50b95d"/><path id="Path_59200" data-name="Path 59200" d="M405.019,77.49V71.522a12.171,12.171,0,0,0-.266-2.558,4.508,4.508,0,0,0-.853-1.919,3.748,3.748,0,0,0-1.652-1.172,7.321,7.321,0,0,0-2.611-.373h-.106a6.874,6.874,0,0,0-4.636,1.652l-.32.32v.053l1.812,1.812a4.358,4.358,0,0,1,2.931-1.386h.053a2.6,2.6,0,0,1,1.652.586,1.85,1.85,0,0,1,.693,1.545h-1.652a9.8,9.8,0,0,0-1.759.16,16.086,16.086,0,0,0-1.705.373,6.006,6.006,0,0,0-1.439.693,3.593,3.593,0,0,0-1.013,1.172,3.993,3.993,0,0,0-.053,3.251A3.114,3.114,0,0,0,395,76.851a3.964,3.964,0,0,0,1.332.693,5.27,5.27,0,0,0,1.6.213,5.846,5.846,0,0,0,2.131-.426A3.423,3.423,0,0,0,401.715,76V77.49Zm-3.357-4.9a2.823,2.823,0,0,1-2.878,2.611c-1.332,0-1.919-.639-1.919-1.332,0-1.439,2.665-1.492,4.264-1.492h.533Z" transform="translate(-296.068 -60.103)" fill="#50b95d"/></g></g></svg>