<?xml version="1.0" encoding="UTF-8"?>
<svg xmlns="http://www.w3.org/2000/svg" xmlns:xlink="http://www.w3.org/1999/xlink" width="100px" height="20px" viewBox="0 0 100 20" version="1.1">
    <g id="surface1">
        <path style="fill-rule:nonzero;fill:rgb(100%,27.45098%,27.45098%);fill-opacity:1;stroke-width:0.5;stroke-linecap:butt;stroke-linejoin:miter;stroke:rgb(89.019608%,89.019608%,89.019608%);stroke-opacity:1;stroke-miterlimit:4;" d="M 0.331473 0.247802 C 4.889947 17.419288 9.448421 34.55989 14.000717 51.669608 L 19.442473 51.669608 L 30.363044 11.891058 L 41.431858 51.885796 L 46.688309 51.885796 C 51.012064 34.806962 55.341997 17.728128 59.690459 0.649294 L 53.822505 0.649294 C 50.487037 14.022052 47.151568 27.425694 43.822277 40.798452 L 32.802877 0.61841 L 27.73173 0.61841 L 16.842042 40.644032 C 13.45716 27.147738 10.08463 13.682328 6.712101 0.247802 Z M 0.331473 0.247802 " transform="matrix(0.632407,0,0,0.126481,0.0208426,5.363189)"/>
        <path style="fill-rule:nonzero;fill:rgb(100%,27.45098%,27.45098%);fill-opacity:1;stroke-width:0.5;stroke-linecap:butt;stroke-linejoin:miter;stroke:rgb(89.019608%,89.019608%,89.019608%);stroke-opacity:1;stroke-miterlimit:4;" d="M 79.802099 27.765417 L 79.870044 31.625913 L 61.710271 31.625913 L 61.710271 28.630168 C 62.365011 24.275529 66.009319 20.970944 70.407196 20.754757 C 74.81125 20.569453 78.745867 23.50343 79.802099 27.765417 Z M 81.797204 43.423589 C 81.797204 43.423589 77.627868 48.365024 71.661085 47.747344 C 66.923485 47.160549 62.995044 43.794197 61.722624 39.192485 L 61.617619 35.640829 L 85.843003 35.918785 C 85.843003 33.849559 85.768882 31.780333 85.737998 29.711107 C 85.571224 26.746246 84.527346 23.904921 82.742253 21.55774 C 82.538419 21.310668 78.20231 15.813322 71.376953 15.844206 C 64.953087 15.844206 58.862769 20.723873 56.830604 27.950721 L 56.830604 40.7058 C 57.571819 43.330937 58.949244 45.739887 60.826989 47.685577 C 62.525608 49.384195 64.533066 50.712205 66.738181 51.638724 C 72.260234 53.70795 79.419138 51.638724 85.138849 46.573754 Z M 81.797204 43.423589 " transform="matrix(0.632407,0,0,0.126481,0.0208426,5.363189)"/>
        <path style="fill-rule:nonzero;fill:rgb(100%,27.45098%,27.45098%);fill-opacity:1;stroke-width:0.5;stroke-linecap:butt;stroke-linejoin:miter;stroke:rgb(89.019608%,89.019608%,89.019608%);stroke-opacity:1;stroke-miterlimit:4;" d="M -18.582855 -25.528939 L -18.397551 25.52226 L -13.697011 25.52226 L -13.802017 11.192099 L -2.251413 -1.501212 L 13.141157 25.52226 L 18.582912 25.52226 L 18.582912 23.113311 L 1.127293 -4.774912 L 1.127293 -6.566182 L 16.797818 -25.436287 L 10.509843 -25.528939 L -13.802017 3.471107 L -13.802017 -25.528939 Z M -18.582855 -25.528939 " transform="matrix(0.632407,0,0,0.126481,69.908185,8.682063)"/>
        <path style="fill-rule:nonzero;fill:rgb(100%,27.45098%,27.45098%);fill-opacity:1;stroke-width:0.5;stroke-linecap:butt;stroke-linejoin:miter;stroke:rgb(89.019608%,89.019608%,89.019608%);stroke-opacity:1;stroke-miterlimit:4;" d="M 129.747652 42.589722 L 129.747652 26.900666 C 131.477154 20.507685 137.332754 16.091277 143.960454 16.214813 C 150.59433 16.307465 156.301687 20.909176 157.808825 27.363926 L 157.808825 41.910275 C 155.999025 47.994416 150.341082 51.576956 143.997515 51.793144 C 137.660124 51.978448 131.890999 48.612096 129.747652 42.589722 Z M 143.861625 47.438505 C 148.203911 47.314969 151.922341 44.319224 152.929158 40.08812 L 152.929158 29.18608 C 152.008816 24.244645 148.160673 20.878292 143.738089 20.847408 C 139.321682 20.816525 135.541484 23.997573 134.491429 28.846356 L 134.491429 40.582264 C 135.627959 44.7516 139.513163 47.623809 143.861625 47.438505 Z M 143.861625 47.438505 " transform="matrix(0.632407,0,0,0.126481,0.0208426,5.363189)"/>
        <path style="fill-rule:nonzero;fill:rgb(100%,27.45098%,27.45098%);fill-opacity:1;stroke-width:0.5;stroke-linecap:butt;stroke-linejoin:miter;stroke:rgb(89.019608%,89.019608%,89.019608%);stroke-opacity:1;stroke-miterlimit:4;" d="M 79.159713 59.462368 C 82.637247 62.736069 92.872194 68.048111 107.461781 67.770156 C 122.19961 67.4922 132.632214 62.211041 136.177694 59.184413 C 137.43776 60.450655 138.710179 61.716898 139.982599 62.983141 C 130.420922 69.530542 119.111213 73.051314 107.529725 73.082198 C 90.321179 73.205734 78.109658 66.009769 75.360985 62.180157 C 76.528399 61.408058 77.998475 60.265351 79.159713 59.462368 Z M 79.159713 59.462368 " transform="matrix(0.632407,0,0,0.126481,0.0208426,5.361924)"/>
    </g>
</svg>
